<?xml version="1.0" standalone="no"?>
<!DOCTYPE svg PUBLIC "-//W3C//DTD SVG 20010904//EN"
 "http://www.w3.org/TR/2001/REC-SVG-20010904/DTD/svg10.dtd">
<svg version="1.0" xmlns="http://www.w3.org/2000/svg"
 width="220.000000pt" height="218.000000pt" viewBox="0 0 220.000000 218.000000"
 preserveAspectRatio="xMidYMid meet">

<g transform="translate(0.000000,218.000000) scale(0.100000,-0.100000)"
fill="#000000" stroke="none">
<path d="M0 2169 c0 -5 5 -7 10 -4 5 3 10 8 10 11 0 2 -4 4 -10 4 -5 0 -10 -5
-10 -11z"/>
<path d="M166 2035 c-14 -21 -16 -60 -16 -267 1 -175 4 -247 13 -259 21 -27
919 -619 939 -619 29 0 32 2 504 315 305 204 444 302 452 320 8 18 12 98 12
251 0 266 -5 284 -71 284 -36 0 -83 -29 -446 -270 -223 -149 -414 -275 -424
-281 -13 -7 -26 -6 -41 2 -13 7 -204 133 -426 281 -352 234 -408 268 -441 268
-30 0 -42 -6 -55 -25z m512 -434 c366 -244 410 -271 436 -271 8 0 189 116 401
257 308 205 388 254 396 242 5 -7 9 -62 9 -120 0 -97 -2 -107 -22 -126 -32
-30 -759 -515 -780 -521 -12 -3 -162 92 -418 262 -220 147 -400 270 -400 274
-1 28 -2 219 -1 230 1 6 5 12 11 12 5 0 171 -107 368 -239z"/>
<path d="M170 1228 c-19 -21 -20 -34 -20 -267 1 -180 4 -250 13 -262 7 -9 152
-109 322 -222 171 -114 337 -225 370 -247 168 -114 214 -141 246 -146 31 -5
70 19 489 298 287 192 459 312 467 328 9 18 13 89 13 248 0 262 -7 292 -67
292 -19 0 -44 -5 -56 -11 -12 -7 -204 -133 -426 -281 -301 -200 -409 -267
-423 -262 -11 3 -205 129 -431 280 -440 294 -452 300 -497 252z m472 -414
c429 -286 453 -300 488 -287 15 6 195 122 400 258 289 193 374 245 381 234 11
-17 12 -219 1 -236 -4 -7 -187 -131 -406 -277 l-398 -265 -41 27 c-22 15 -203
135 -401 268 l-361 241 -5 109 c-5 114 -3 144 10 144 5 0 154 -97 332 -216z"/>
</g>
</svg>
