<?xml version="1.0" ?>
<!-- Uploaded to: SVG Repo, www.svgrepo.com, Generator: SVG Repo Mixer Tools -->
<svg width="800px" height="800px" viewBox="0 0 24 24" xmlns="http://www.w3.org/2000/svg" xmlns:xlink="http://www.w3.org/1999/xlink">
<defs>
<style>.cls-1{fill:#f19b5f;}.cls-2{fill:#ffce69;}.cls-3{fill:#b24040;}.cls-4{fill:#ce5959;}.cls-5{fill:url(#linear-gradient);}.cls-6{fill:#6c2e7c;}</style>
<linearGradient gradientUnits="userSpaceOnUse" id="linear-gradient" x1="12" x2="12" y1="-0.83" y2="10.006">
<stop offset="0" stop-color="#ff4867"/>
<stop offset="1" stop-color="#e50031"/>
</linearGradient>
</defs>
<g id="Icons">
<path class="cls-1" d="M21,7.55V21a2.006,2.006,0,0,1-2,2H5a2.006,2.006,0,0,1-2-2V7.55L12,1Z"/>
<path class="cls-2" d="M21,7.55V16a2.006,2.006,0,0,1-2,2H5a2.006,2.006,0,0,1-2-2V7.55L12,1Z"/>
<path class="cls-3" d="M15,14v9H9V14a1,1,0,0,1,1-1h4A1,1,0,0,1,15,14Z"/>
<path class="cls-4" d="M15,14v4H9V14a1,1,0,0,1,1-1h4A1,1,0,0,1,15,14Z"/>
<path class="cls-5" d="M23,10a1,1,0,0,1-.587-.191L12,2.236,1.588,9.809A1,1,0,0,1,.412,8.191l11-8a1,1,0,0,1,1.176,0l11,8A1,1,0,0,1,23,10Z"/>
</g>
<g data-name="Layer 4" id="Layer_4">
<path class="cls-6" d="M12.588.191a1,1,0,0,0-1.176,0l-11,8A1,1,0,0,0,1.588,9.809L2,9.509V21a3,3,0,0,0,3,3H19a3,3,0,0,0,3-3V9.509l.412.3a1,1,0,1,0,1.176-1.618ZM10,22V14h4v8Zm10-1a1,1,0,0,1-1,1H16V14a2,2,0,0,0-2-2H10a2,2,0,0,0-2,2v8H5a1,1,0,0,1-1-1V8.054l8-5.818,8,5.818Z"/>
</g>
</svg>